<svg width="1200" height="850" viewBox="0 0 1200 850" fill="none" xmlns="http://www.w3.org/2000/svg">
  <rect width="1200" height="850" rx="36" fill="#F7F2E7"/>
  <rect x="24" y="24" width="1152" height="802" rx="28" stroke="#D2B780" stroke-width="2"/>
  <rect x="46" y="46" width="1108" height="758" rx="22" fill="url(#bg)"/>
  <circle cx="161" cy="162" r="126" fill="#E5D4AB" fill-opacity="0.45"/>
  <circle cx="1041" cy="686" r="154" fill="#A9D1C0" fill-opacity="0.28"/>
  <path d="M119 124H328" stroke="#A77B2D" stroke-width="4" stroke-linecap="round"/>
  <path d="M119 160H282" stroke="#A77B2D" stroke-width="4" stroke-linecap="round"/>
  <text x="600" y="168" text-anchor="middle" fill="#2D6B5F" font-family="Georgia, 'Times New Roman', serif" font-size="34" font-weight="700" letter-spacing="10">
    ZAMAXSHAR
  </text>
  <text x="600" y="255" text-anchor="middle" fill="#182B25" font-family="Georgia, 'Times New Roman', serif" font-size="78" font-weight="700">
    SERTIFIKAT
  </text>
  <text x="600" y="315" text-anchor="middle" fill="#667B72" font-family="Arial, sans-serif" font-size="24" letter-spacing="5">
    ONA TILI VA ADABIYOT FANI O'QITUVCHISI
  </text>
  <text x="600" y="410" text-anchor="middle" fill="#A77B2D" font-family="Arial, sans-serif" font-size="22" letter-spacing="4">
    MAZMUNLI TA'LIM VA YUQORI NATIJA UCHUN
  </text>
  <text x="600" y="500" text-anchor="middle" fill="#182B25" font-family="Georgia, 'Times New Roman', serif" font-size="58" font-weight="700">
    Saodat Xolmatova
  </text>
  <text x="600" y="558" text-anchor="middle" fill="#4B6158" font-family="Arial, sans-serif" font-size="28">
    malakali o'qituvchi sifatida faoliyat yuritayotganini tasdiqlaydi
  </text>
  <rect x="185" y="645" width="830" height="2" fill="#D2B780"/>
  <text x="220" y="698" fill="#182B25" font-family="Arial, sans-serif" font-size="24" font-weight="700">
    Berilgan sana: 2026-yil
  </text>
  <text x="220" y="735" fill="#667B72" font-family="Arial, sans-serif" font-size="20">
    Zamaxshar o'quv markazi metodik kengashi
  </text>
  <text x="834" y="698" fill="#182B25" font-family="Arial, sans-serif" font-size="24" font-weight="700">
    Direktor imzosi
  </text>
  <path d="M838 730C871 687 906 775 964 706C974 694 995 702 1002 713" stroke="#2D6B5F" stroke-width="5" stroke-linecap="round"/>
  <circle cx="994" cy="171" r="70" fill="#F4EAD0" stroke="#D2B780" stroke-width="8"/>
  <circle cx="994" cy="171" r="48" fill="#2D6B5F"/>
  <path d="M970 173L987 190L1021 152" stroke="#F7F2E7" stroke-width="9" stroke-linecap="round" stroke-linejoin="round"/>
  <defs>
    <linearGradient id="bg" x1="71" y1="86" x2="1127" y2="760" gradientUnits="userSpaceOnUse">
      <stop stop-color="#FBF7EF"/>
      <stop offset="1" stop-color="#F3E8D7"/>
    </linearGradient>
  </defs>
</svg>
